<svg xmlns="http://www.w3.org/2000/svg" xmlns:xlink="http://www.w3.org/1999/xlink" width="79" height="122" viewBox="0 0 79 122">
    <defs>
        <path id="a" d="M.025.5h1V1h-1z"/>
        <path id="c" d="M.025.5h1V1h-1z"/>
        <path id="e" d="M0 .793h59V72H0z"/>
        <path id="g" d="M.975.5h1V1h-1z"/>
        <path id="i" d="M.975.5h1V1h-1z"/>
        <filter id="k" width="154.5%" height="340%" x="-27.3%" y="-120%" filterUnits="objectBoundingBox">
            <feGaussianBlur in="SourceGraphic" stdDeviation="4"/>
        </filter>
    </defs>
    <g fill="none" fill-rule="evenodd" transform="translate(0 -1)">
        <g transform="translate(39 71.207)">
            <mask id="b" fill="#fff">
                <use xlink:href="#a"/>
            </mask>
            <path fill="#FFF" d="M.5 1h.051H.5z" mask="url(#b)"/>
        </g>
        <g transform="translate(39 71.207)">
            <mask id="d" fill="#fff">
                <use xlink:href="#c"/>
            </mask>
            <path fill="#000" d="M.55 1H.5h.05z" mask="url(#d)"/>
        </g>
        <path fill="#F4E9CE" d="M39.489 71.207c-18.916-.05-28.49-9.279-28.49-27.432 0-20.152 7.476-41.709 28.453-41.774C60.526 2.066 68 23.623 68 43.775c0 18.153-9.572 27.382-28.451 27.431l-.05.001h-.01z"/>
        <g transform="translate(10 .207)">
            <mask id="f" fill="#fff">
                <use xlink:href="#e"/>
            </mask>
            <path fill="#000" d="M29.5.793l-.051.001C8.162.86 0 22.001 0 43.568 0 65.102 13.199 71.958 29.449 72L29.5 72h.051C45.802 71.956 59 65.101 59 43.567 59 22.001 50.838.86 29.551.794H29.5m0 2h.044c9.127.028 16.189 4.18 20.99 12.34C54.704 22.217 57 32.315 57 43.567c0 9.418-2.66 16.394-7.905 20.734-4.543 3.76-11.12 5.676-19.549 5.697h-.092c-8.429-.02-15.006-1.938-19.548-5.697C4.66 59.962 2 52.986 2 43.568c0-11.252 2.296-21.35 6.466-28.435 4.801-8.159 11.863-12.31 20.99-12.339h.044" mask="url(#f)"/>
        </g>
        <g transform="translate(38 71.207)">
            <mask id="h" fill="#fff">
                <use xlink:href="#g"/>
            </mask>
            <path fill="#FFF" d="M1.45 1a.868.868 0 0 0 .05 0h-.05z" mask="url(#h)"/>
        </g>
        <g transform="translate(38 71.207)">
            <mask id="j" fill="#fff">
                <use xlink:href="#i"/>
            </mask>
            <path fill="#000" d="M1.45 1h.05-.05" mask="url(#j)"/>
        </g>
        <path fill="#F4C892" d="M48.773 56.57a1.153 1.153 0 0 1 0 2.306c-5.722 0-10.376-4.654-10.376-10.375a1.153 1.153 0 0 1 2.306 0c0 4.45 3.62 8.07 8.07 8.07zM39.55 33.517c8.263 0 14.985 6.722 14.986 14.985a5.77 5.77 0 0 1-5.764 5.764 5.77 5.77 0 0 1-5.764-5.764 3.46 3.46 0 0 0-3.458-3.458 3.462 3.462 0 0 0-3.458 3.458c0 1.713.335 3.373.997 4.935a12.608 12.608 0 0 0 2.717 4.03 12.628 12.628 0 0 0 4.03 2.719 1.153 1.153 0 0 1-.897 2.124 14.923 14.923 0 0 1-4.764-3.212 14.929 14.929 0 0 1-3.21-4.763 14.888 14.888 0 0 1-1.18-5.833 5.77 5.77 0 0 1 5.765-5.763 5.77 5.77 0 0 1 5.764 5.763 3.462 3.462 0 0 0 3.458 3.458 3.462 3.462 0 0 0 3.458-3.458c0-6.992-5.688-12.68-12.68-12.68s-12.68 5.688-12.68 12.68a1.153 1.153 0 1 1-2.305 0c0-8.262 6.722-14.985 14.985-14.985zM31.48 48.5c0 4.62 1.8 8.96 5.065 12.227a1.151 1.151 0 0 1-.814 1.968c-.296 0-.591-.112-.816-.337a19.47 19.47 0 0 1-5.74-13.858c0-5.72 4.654-10.373 10.375-10.373 5.72 0 10.374 4.654 10.374 10.373a1.153 1.153 0 1 1-2.305 0c0-4.448-3.62-8.069-8.07-8.069-4.448 0-8.068 3.62-8.068 8.07zm26.125-7.627a1.152 1.152 0 1 1-2.123.896 17.258 17.258 0 0 0-3.706-5.495A17.24 17.24 0 0 0 39.55 31.21a17.233 17.233 0 0 0-12.226 5.065 17.22 17.22 0 0 0-3.706 5.495 1.153 1.153 0 1 1-2.123-.898 19.517 19.517 0 0 1 4.2-6.228 19.537 19.537 0 0 1 13.855-5.74c2.645 0 5.212.518 7.628 1.54a19.56 19.56 0 0 1 6.23 4.2 19.55 19.55 0 0 1 4.198 6.228zm-33.542-7.86a1.153 1.153 0 0 1-1.63-1.63 24.049 24.049 0 0 1 17.117-7.09 24.049 24.049 0 0 1 17.117 7.09 1.153 1.153 0 0 1-1.63 1.63A21.762 21.762 0 0 0 39.551 26.6c-5.85 0-11.35 2.279-15.487 6.415z"/>
        <g>
            <path fill="#000" d="M36.04 11.715c1.449 0 1.45-2.25 0-2.25-1.447 0-1.45 2.25 0 2.25M43.061 11.811c1.448 0 1.45-2.25 0-2.25-1.448 0-1.45 2.25 0 2.25"/>
            <path stroke="#000" stroke-linecap="round" stroke-linejoin="round" stroke-width="2" d="M48.96 16.818c-6.053.05-9.46-3.458-9.46-3.458s-3.408 3.509-9.46 3.458"/>
        </g>
        <ellipse cx="39" cy="89" fill="#000" fill-opacity=".3" fill-rule="nonzero" filter="url(#k)" rx="22" ry="5"/>
        <text fill="#7FD3C8" font-family="AppleSDGothicNeo-Bold, Apple SD Gothic Neo" font-size="24" font-weight="bold" letter-spacing="-.338">
            <tspan x=".061" y="123">thumbs</tspan>
        </text>
    </g>
</svg>
